<?xml version="1.0" encoding="UTF-8"?>
<svg id="Camada_1" data-name="Camada 1" xmlns="http://www.w3.org/2000/svg" viewBox="0 0 500 201.62">
  <defs>
    <style>
      .cls-1, .cls-2 {
        stroke-width: 0px;
      }
      .cls-1 {
        fill: white;
      }
      .cls-2 {
        fill: #ED2448;
      }
    </style>
  </defs>
  <g>
    <path id="parte-superior-P" class="cls-1" d="M111.92,66.27c-27.62,0-55.24-.01-82.86.03-1.4,0-2.22-.53-2.99-1.59-4.18-5.8-8.4-11.57-12.62-17.35-1.66-2.28-3.33-4.56-5-6.83-.2-.27-.37-.55-.17-.86.19-.29.45-.03.69,0,.63.07,1.26.07,1.9.07,55.61,0,111.22,0,166.83-.01,4.57,0,8.44,1.74,11.91,4.46,4.75,3.73,7.28,8.68,7.98,14.73.25,2.17-.24,4.14-.4,6.2-.06.71-.55,1.12-1.29,1.14-.42.01-.85,0-1.27,0h-82.7,0Z"/>
    <path id="parte-inferior-P" class="cls-1" d="M66.56,171.07c.9-3.49,1.77-6.96,2.68-10.41,1.77-6.68,3.55-13.35,5.34-20.03,1.02-3.8,2.11-7.59,3.11-11.39,1.31-4.98,2.57-9.97,3.86-14.95.53-2.06.97-4.15,1.68-6.15.51-1.41.08-1.55-1.18-1.55-20.37.03-40.74,0-61.12.07-1.83,0-2.88-.64-3.85-2.01-5.29-7.44-10.64-14.84-15.95-22.27-.39-.55-1.53-.89-1.01-1.72.4-.65,1.38-.25,2.09-.25,41.01-.02,82.02-.01,123.03-.01,2.12,0,2.15,0,1.61,2.05-2.11,7.93-4.22,15.86-6.39,23.77-.24.89-.31,1.21.76,1.2,7.09-.03,14.19.12,21.27-.08,3.37-.09,5.81-2.12,7.47-5.05,1.62-2.86,2.13-6.05,2.93-9.16,1.01-3.93,2.01-7.87,3.01-11.81.24-.96.95-.93,1.72-.93,6.67.02,13.33,0,20,0,4.66,0,9.31.02,13.97-.02,1.2,0,1.52.18,1.14,1.53-1.33,4.81-2.45,9.68-3.71,14.51-.97,3.71-2.14,7.37-3.05,11.09-1.07,4.36-2.77,8.4-5.42,12.04-5.27,7.23-12.06,12.24-20.87,14.3-.51.12-1.05.08-1.58.08-14.45,0-28.89.01-43.34-.02-1.03,0-1.59.18-1.88,1.28-3.03,11.54-6.11,23.08-9.2,34.61-.2.73-.35,1.43-1.51,1.42-11.69-.05-23.39-.03-35.08-.04-.15,0-.31-.05-.55-.1h0Z"/>
    <path id="parte-inferior-A" class="cls-1" d="M258.2,66.27h-48.89c-2.12,0-2.02.02-1.6-2.1,1.25-6.4,4.53-11.73,9.08-16.18,5.11-5.01,11.28-8.2,18.5-9.15,1.42-.19,2.83-.24,4.25-.24,16.45,0,32.91-.16,49.36.05,9.27.12,15.74,4.84,18.99,13.49,1.54,4.1,2.01,8.4,1.91,12.77-.04,1.53-.96,1.35-1.92,1.35h-49.68,0Z"/>
    <path id="parte-inferior-A-2" data-name="parte-inferior-A" class="cls-1" d="M219.48,80.4c4.81,0,9.63.05,14.44-.03,1.49-.03,1.48.34,1.11,1.65-1.48,5.18-2.78,10.41-4.17,15.62-.75,2.82-1.52,5.62-2.3,8.43-.28.99-.06,1.35,1.08,1.36,8.71.08,16.99-1.63,24.82-5.56,6.15-3.09,9.84-8.25,12.45-14.35.85-2,1.5-4.11,2.08-6.21.2-.72.42-.92,1.12-.92,11.53.02,23.07.02,34.6,0,.82,0,1.05.1.84,1.06-.89,4.12-2.08,8.16-3.16,12.23-2.23,8.38-4.54,16.74-6.79,25.11-1.29,4.81-2.54,9.63-3.74,14.46-.17.68-.51.67-1,.67h-19.36c-.51,0-.84-.04-.99-.71-.84-3.86-1.74-7.71-2.67-11.56-.12-.49-.02-1.32-.76-1.35-.9-.03-1.81-.29-2.69.48-4.17,3.63-8.72,6.7-13.72,9.07-5.58,2.64-11.39,4.46-17.61,5.01-4.59.4-9.21.51-13.76.16-9.96-.77-17.19-5.96-21.3-15.05-2.54-5.62-2.28-11.52-.6-17.44,1.94-6.84,3.68-13.74,5.45-20.63.3-1.16.78-1.56,2.02-1.54,4.87.08,9.74.03,14.6.03h0Z"/>
    <path id="letra-I" class="cls-1" d="M334.58,80.4c5.61,0,11.21.03,16.82-.02,1.23-.01,1.53.17,1.16,1.5-1.75,6.18-3.39,12.4-5.04,18.61-1.27,4.78-2.51,9.56-3.76,14.34-1.56,5.92-3.13,11.83-4.67,17.75-.27,1.03-.78,1.38-1.9,1.38-11.32-.05-22.63-.04-33.95,0-1.17,0-1.55-.06-1.15-1.46,1.53-5.4,2.74-10.88,4.33-16.26,1.04-3.53,1.96-7.09,2.94-10.63,1.71-6.2,3.26-12.45,4.91-18.67.46-1.75,1.08-3.46,1.47-5.23.23-1.05.71-1.32,1.72-1.32,5.71.04,11.42.02,17.13.02h0Z"/>
    <path id="pingo-I-letra-N" class="cls-1" d="M454.11,16.13c13.98,0,27.74,0,41.5.01,2.15,0,4.23,2.38,4.37,4.54.21,3.18-1.06,6.02-1.83,8.98-1.62,6.29-3.2,12.59-4.9,18.86-.85,3.15-1.77,6.28-2.57,9.44-1.4,5.49-2.89,10.95-4.38,16.42-1.33,4.9-2.72,9.78-4.03,14.69-1.64,6.12-3.2,12.26-4.83,18.38-.96,3.61-2.02,7.2-2.99,10.81-1.34,4.96-2.67,9.92-3.93,14.9-.16.61-.33.81-.89.77-.31-.02-.64,0-.95,0-14.29,0-28.57-.03-42.86.04-1.37,0-1.9-.45-2.29-1.67-2.47-7.77-4.99-15.53-7.52-23.29-2.47-7.56-4.96-15.11-7.44-22.66-.61-1.87-1.24-3.73-1.83-5.61-.18-.56-.23-1.14-1.05-1.12-.82.01-.86.62-1.01,1.17-1.52,5.55-3.05,11.1-4.55,16.65-1.67,6.16-3.33,12.32-4.98,18.49-1.47,5.47-2.97,10.93-4.36,16.43-.29,1.12-.61,1.62-1.9,1.62-11.22-.06-22.43-.03-33.65-.03-.98,0-1.85.25-1.32-1.45,1.04-3.3,1.71-6.71,2.61-10.06,1.84-6.87,3.74-13.73,5.59-20.6,2.53-9.37,5.04-18.75,7.54-28.14,1.49-5.58,2.86-11.19,4.42-16.75.96-3.44-1.13-7.53-5.24-7.8-2.1-.14-4.2-.03-6.29-.25-1.08-.11-1.34.49-1.55,1.28-1.3,4.98-2.65,9.95-3.86,14.96-.24.98-.64,1.16-1.48,1.16-11.53-.01-23.07-.01-34.6,0-.87,0-1.15-.06-.85-1.16,1.81-6.72,3.78-13.4,5.3-20.2.31-1.4.92-2.74,1.19-4.18.13-.7.52-1.13,1.33-.99.26.04.53,0,.79,0,31.43,0,62.86,0,94.29-.03,1.39,0,2.08.25,2.54,1.75,2.03,6.66,4.26,13.26,6.38,19.89,1.64,5.15,3.08,10.38,4.86,15.49,1.9,5.46,3.65,10.97,5.37,16.48.22.69.65.72,1.2.72.57,0,.8-.27.94-.83,1.35-5.5,2.9-10.96,4.33-16.43,1.58-6.03,3.33-12.01,4.73-18.09.84-3.63,2.05-7.17,3.02-10.77,1.44-5.32,2.81-10.66,4.21-15.99.18-.7.3-1.45.63-2.08,1.53-3.01-.9-4.65-2.23-6.69-1.53-2.35-3.53-4.37-4.99-7.03h0Z"/>
    <path id="triangulo-P" class="cls-2" d="M55.25,156.42c-8.61-11.77-17.01-23.24-25.4-34.7.4-.49.86-.3,1.25-.3,10.63-.01,21.26.02,31.9-.04,1.41,0,1.65.31,1.27,1.67-2.86,10.46-5.65,20.93-8.46,31.4-.15.55-.31,1.09-.57,1.97h0Z"/>
  </g>
  <g>
    <path id="G" class="cls-1" d="M135.81,201.58h-20.31c-3.02,0-5.14-2.88-4.34-5.82,2.61-9.67,5.14-19.36,7.81-29.02,1.05-3.82,2.01-7.66,3.02-11.48.99-3.78,5.23-7,9.09-6.96,12.8.13,25.6.08,38.4.02,1.51,0,1.77.34,1.35,1.74-.98,3.29-1.84,6.62-2.72,9.95-.25.95-.72,1.26-1.75,1.25-8.73-.05-17.45-.03-26.18-.03-3.34,0-4.42.88-5.32,4.31-1.1,4.21-2.21,8.42-3.31,12.63-.82,3.16-1.65,6.32-2.44,9.49-.57,2.28.14,3.2,2.42,3.2,4.97,0,9.95-.02,14.92.02,1.06,0,1.39-.35,1.6-1.4.62-2.95,1.36-5.88,2.21-8.77.32-1.08-.13-1.02-.85-1.02-2.75.01-5.5-.07-8.25.04-1.01.04-1.11-.12-.86-1.03.69-2.51,1.33-5.04,1.91-7.58.14-.6.46-.6.89-.6,7.46,0,14.92,0,22.37-.01.94,0,.89.5.73,1.12-.79,2.95-1.6,5.89-2.38,8.84-1.42,5.38-2.79,10.76-4.25,16.13-.34,1.25-.86,2.44-1.05,3.73-.15,1.05-.79,1.26-1.77,1.25-6.98-.04-13.97-.02-20.95-.02h0Z"/>
    <path id="A" class="cls-1" d="M205.05,148.35c3.23,0,6.46.04,9.68-.02,1.04-.02,1.31.28,1.35,1.33.23,5.67.49,11.34.88,17,.26,3.78.36,7.57.6,11.34.37,5.72.72,11.43.94,17.15.07,1.79-.14,3.67.49,5.45.2.56,0,.99-.78.99-4.71-.03-9.42-.03-14.13,0-1.03,0-.9-.63-.9-1.27,0-3.12-.03-6.25.03-9.37.01-.75-.1-.99-.9-.99-5.34.03-10.69.04-16.03,0-.9,0-1.17.52-1.48,1.14-1.63,3.19-3.28,6.38-4.88,9.59-.32.65-.66.91-1.41.91-4.45-.04-8.89-.05-13.33,0-1.28.02-1.13-.44-.66-1.26,3.66-6.4,7.3-12.81,10.96-19.2,4.23-7.38,8.48-14.74,12.7-22.11,1.82-3.17,3.65-6.34,5.38-9.57.48-.9,1.03-1.14,1.97-1.13,3.17.05,6.35.02,9.52.02h0ZM203.19,180.52c0-6.59-.05-13.14.04-19.69.02-1.37-.51-1.51-1.62-1.49-.95.02-1.08.7-1.37,1.28-3.11,6.18-6.22,12.37-9.3,18.57-.2.39-.61.77-.35,1.33h12.61,0Z"/>
    <path id="M" class="cls-1" d="M251.42,181.35c0-6.19.02-12.39-.03-18.58,0-.5.53-1.37-.52-1.53-1.04-.15-1,.75-1.13,1.35-1.46,6.68-2.79,13.39-4.36,20.05-1.38,5.87-3.02,11.68-4.56,17.51-.24.91-.6,1.5-1.81,1.47-4.34-.1-8.68-.05-13.02-.03-.98,0-1.4-.01-1.03-1.29,1.46-4.98,2.76-10,4.1-15.01,1.72-6.41,3.41-12.83,5.12-19.25,1.32-4.93,2.61-9.86,3.99-14.77.83-2.93.9-2.91,4.04-2.91,6.14,0,12.28.04,18.41-.03,1.4-.02,1.86.27,1.85,1.79-.07,11.91-.05,23.82-.02,35.74,0,.55-.45,1.38.43,1.64.84.24,1.05-.63,1.33-1.11,4.27-7.12,8.4-14.32,12.76-21.37,3.24-5.24,6.35-10.56,9.58-15.8.38-.62.83-.88,1.63-.88,7.14.05,14.29.04,21.43.01.98,0,1.41.04,1.05,1.28-1.5,5.17-2.89,10.38-4.3,15.58-1.36,5.02-2.71,10.04-4.05,15.07-1.78,6.67-3.56,13.35-5.28,20.04-.24.92-.58,1.31-1.58,1.3-4.39-.05-8.78-.03-13.18-.02-.8,0-1.25.01-.94-1.13,1.52-5.51,2.78-11.11,4.4-16.59,2.08-7.03,4.42-13.98,6.64-20.96.17-.54.71-1.24.02-1.6-.73-.39-1.15.21-1.55.88-5.01,8.39-10.06,16.75-15.1,25.12-2.67,4.43-5.34,8.85-8.02,13.27-.42.69-.94,1.05-1.87,1.04-4.34-.07-8.68-.08-13.02,0-1.22.02-1.49-.35-1.48-1.52.06-6.25.03-12.49.03-18.74h0Z"/>
    <path id="I" class="cls-1" d="M315.36,201.58c-2.43,0-4.87,0-7.3,0-.79,0-1.23.04-.92-1.12,2.67-10.08,5.31-20.17,8.14-30.22,1.87-6.65,3.6-13.34,5.27-20.05.39-1.57,1.12-1.91,2.6-1.87,4.5.1,8.99.04,13.49.03.79,0,1.28,0,.99,1.09-2.4,8.76-4.82,17.52-7.07,26.32-1.49,5.82-3.1,11.61-4.66,17.42-.64,2.36-1.15,4.76-1.82,7.12-.29,1.02-.72,1.34-1.74,1.31-2.33-.07-4.66-.02-6.98-.02h0Z"/>
    <path id="N" class="cls-1" d="M360.09,162.43c-2.04,7.53-3.98,14.62-5.88,21.72-1.49,5.57-2.97,11.14-4.39,16.73-.17.67-.48.69-.97.69-4.66,0-9.31,0-13.97,0-.91,0-1-.23-.73-1.13.95-3.23,1.74-6.51,2.62-9.76,2.24-8.32,4.5-16.64,6.73-24.96,1.45-5.42,2.79-10.86,4.36-16.25.29-.98.68-1.13,1.5-1.13,6.03.01,12.06.02,18.09,0,.75,0,1.06.22,1.3.96,2.19,6.99,4.42,13.97,6.66,20.95,1.61,5.03,3.25,10.06,4.98,15.39.96-3.45,1.87-6.63,2.72-9.82,1.01-3.77,1.97-7.56,2.96-11.33,1.34-5.1,2.7-10.2,4.01-15.31.17-.67.54-.83,1.13-.83,4.6,0,9.21,0,13.81,0,.95,0,1,.44.78,1.22-2.06,7.51-4.1,15.02-6.12,22.53-1.93,7.16-3.84,14.32-5.74,21.48-.62,2.32-1.22,4.64-1.78,6.97-.2.83-.61,1.04-1.43,1.04-5.61-.03-11.21-.04-16.82,0-1.01,0-1.36-.4-1.63-1.27-1.67-5.35-3.37-10.7-5.09-16.04-1.6-4.96-3.22-9.9-4.83-14.86-.72-2.21-1.43-4.42-2.27-7.01h0Z"/>
    <path id="G-2" data-name="G" class="cls-1" d="M444.1,179.65c-3.47.27-6.74-.3-9.98.32-.48.09-.76.04-.54-.68.77-2.58,1.44-5.19,2.12-7.79.18-.69.45-.99,1.25-.99,7.3.04,14.6.04,21.9,0,1.06,0,1.02.32.79,1.16-2.05,7.56-4.06,15.13-6.08,22.7-.55,2.06-1.11,4.12-1.63,6.18-.19.75-.54,1.06-1.4,1.05-14.12-.03-28.25-.02-42.38-.03-1.48,0-3.4-1.67-3.47-3.11-.07-1.36-.07-2.71.3-4.08,1.88-6.85,3.54-13.76,5.54-20.58,1.52-5.19,2.64-10.49,4.24-15.66.61-1.98.95-4.04,2.16-5.81,1.8-2.63,4.3-3.96,7.43-3.97,12.91-.04,25.82-.02,38.73-.02,1.73,0,1.66-.02,1.16,1.73-.91,3.19-1.73,6.4-2.56,9.61-.27,1.05-.61,1.59-1.93,1.58-8.89-.09-17.78-.05-26.66-.04-2.61,0-3.8.99-4.46,3.5-2.04,7.73-4.12,15.45-6.2,23.17-.49,1.8.26,2.94,2.08,2.95,5.24.03,10.48-.06,15.71.06,1.35.03,1.05-.8,1.23-1.46.88-3.19,1.75-6.38,2.69-9.8h0Z"/>
  </g>
  <g>
    <polygon id="estrela-1" class="cls-2" points="338.2 .02 342.24 8.21 351.28 9.52 344.74 15.9 346.28 24.9 338.2 20.65 330.11 24.9 331.66 15.9 325.11 9.52 334.15 8.21 338.2 .02"/>
    <polygon id="estrela-2" class="cls-2" points="381.14 .02 385.18 8.21 394.22 9.52 387.68 15.9 389.22 24.9 381.14 20.65 373.06 24.9 374.6 15.9 368.06 9.52 377.1 8.21 381.14 .02"/>
    <polygon id="estrela-3" class="cls-2" points="424.08 0 428.12 8.19 437.16 9.5 430.62 15.88 432.17 24.88 424.08 20.63 416 24.88 417.54 15.88 411 9.5 420.04 8.19 424.08 0"/>
  </g>
</svg>